<?xml version="1.0" standalone="no"?>
<!DOCTYPE svg PUBLIC "-//W3C//DTD SVG 20010904//EN"
 "http://www.w3.org/TR/2001/REC-SVG-20010904/DTD/svg10.dtd">
<svg version="1.0" xmlns="http://www.w3.org/2000/svg"
 width="300.000000pt" height="34.000000pt" viewBox="0 0 300.000000 34.000000"
 preserveAspectRatio="xMidYMid meet">
<metadata>
Created by potrace 1.10, written by Peter Selinger 2001-2011
</metadata>
<g transform="translate(0.000000,34.000000) scale(0.100000,-0.100000)"
fill="#000000" stroke="none">
<path d="M31 297 c-25 -30 -9 -51 44 -60 79 -14 120 -36 198 -104 103 -91 158
-116 260 -116 104 -1 163 24 262 111 94 83 140 105 224 105 83 0 127 -21 228
-110 95 -83 146 -105 243 -106 110 -2 161 19 265 109 105 90 139 106 225 106
84 1 119 -15 215 -97 111 -94 167 -119 272 -118 102 0 157 25 260 116 78 68
119 90 198 104 53 9 69 30 44 60 -10 12 -26 14 -65 10 -76 -8 -130 -36 -217
-111 -96 -84 -142 -106 -227 -106 -83 0 -126 20 -215 100 -100 90 -158 115
-265 115 -105 0 -162 -25 -265 -116 -88 -79 -132 -99 -215 -99 -83 0 -126 20
-215 99 -104 91 -160 116 -265 116 -107 0 -165 -25 -265 -115 -89 -80 -132
-100 -215 -100 -85 0 -131 22 -227 106 -87 75 -141 103 -217 111 -39 4 -55 2
-65 -10z"/>
</g>
</svg>
